<svg width="57" height="60" viewBox="0 0 57 60" fill="none" xmlns="http://www.w3.org/2000/svg">
<path d="M54.7734 27.6562H30.7266V2.34375C30.7266 1.0493 29.7297 0 28.5 0C27.2703 0 26.2734 1.0493 26.2734 2.34375V27.6562H2.22656C0.996832 27.6562 0 28.7055 0 30C0 31.2945 0.996832 32.3438 2.22656 32.3438H26.2734V57.6562C26.2734 58.9507 27.2703 60 28.5 60C29.7297 60 30.7266 58.9507 30.7266 57.6562V32.3438H54.7734C56.0032 32.3438 57 31.2945 57 30C57 28.7055 56.0032 27.6562 54.7734 27.6562Z" fill="#97E264"/>
</svg>
