<svg width="100" height="89" viewBox="0 0 100 89" fill="none" xmlns="http://www.w3.org/2000/svg">
<path d="M95.946 35.0824H92.7751L55.1891 6.59943C55.1891 6.54565 55.1891 6.48174 55.1891 6.42796C55.3092 3.02259 53.0804 0.14647 50.2121 0.00539186C47.3431 -0.135686 44.9212 2.50894 44.8017 5.91431C44.7952 6.08578 44.7952 6.25648 44.8017 6.42796C44.8017 6.54565 44.8017 6.65243 44.8017 6.77013L9.24304 35.0824H4.05397C1.81526 35.0824 0 37.2376 0 39.8954V84.187C0 86.8449 1.81526 89 4.05397 89H95.946C98.1847 89 100 86.8449 100 84.187V39.8954C100 37.2376 98.1847 35.0824 95.946 35.0824ZM50 3.47623C51.378 3.46921 52.4993 4.79114 52.5046 6.42796C52.5098 8.06478 51.3964 9.39528 50.0177 9.40151C48.6397 9.40775 47.519 8.08582 47.5131 6.44978C47.5131 6.44588 47.5131 6.44199 47.5131 6.43887C47.5138 4.80673 48.6253 3.48246 50 3.47623ZM45.7209 9.89334C47.3405 12.7001 50.5699 13.4164 52.934 11.4935C53.5018 11.0313 53.9863 10.4397 54.3606 9.7546L87.7567 35.0606H14.0993L45.7209 9.89334ZM97.2971 84.187C97.2971 85.0724 96.6918 85.7911 95.946 85.7911H4.05397C3.30817 85.7911 2.70286 85.0724 2.70286 84.187V39.8954C2.70286 39.01 3.30817 38.2906 4.05397 38.2906H95.946C96.6918 38.2906 97.2971 39.01 97.2971 39.8954V84.187Z" fill="#97E264"/>
<path d="M24.7924 63.4905H32.0541V60.0462H24.7924V54.099H32.4684V50.6337H21.4771V73.8975H32.8918V70.4212H24.7924V63.4905Z" fill="#97E264"/>
<path d="M52.0628 50.6337H48.1979L45.4957 56.0999C44.9731 57.1693 44.595 58.0352 44.144 59.0305C43.7205 58.0781 43.2432 57.1373 42.7837 56.11L40.1891 50.6337H36.3604L42.1173 62.1319L36.126 73.8975H39.9639L42.3333 68.7634C43.108 67.2123 43.5945 66.1538 44.0179 65.1694C44.5221 66.2396 45.0808 67.309 45.8194 68.7314L48.3332 73.9084H52.1981L46.0899 61.9714L52.0628 50.6337Z" fill="#97E264"/>
<path d="M56.5132 50.6337H59.8286V73.8975H56.5132V50.6337Z" fill="#97E264"/>
<path d="M63.7842 54.1318H69.4683V73.8975H72.8106V54.1318H78.5229V50.6337H63.7842V54.1318Z" fill="#97E264"/>
</svg>
