<svg width="118" height="162" viewBox="0 0 118 162" fill="none" xmlns="http://www.w3.org/2000/svg">
<path d="M11.5947 37.2858C10.8193 36.0929 9.29977 35.8062 8.2005 36.6521C2.83542 40.776 0 45.6473 0 50.7363C0 52.2004 1.09071 53.3855 2.43582 53.3855C3.78092 53.3855 4.87163 52.2008 4.87163 50.7359C4.87163 46.5736 8.21085 43.1327 11.012 40.9778C12.1109 40.1342 12.371 38.4814 11.5947 37.2858Z" fill="#97E264"/>
<path d="M78.3254 26.3589C76.3367 25.9604 74.2851 25.6166 72.2264 25.3317C70.8881 25.1583 69.6725 26.1773 69.5027 27.6267C69.3339 29.0784 70.2783 30.4056 71.6127 30.5891C73.5833 30.8608 75.5456 31.1918 77.4452 31.5694C77.5943 31.6 77.7431 31.6132 77.888 31.6132C79.0411 31.6132 80.0655 30.7203 80.281 29.4428C80.5243 28.0039 79.648 26.6224 78.3254 26.3589Z" fill="#97E264"/>
<path d="M107.107 39.5706C106.143 38.5512 104.598 38.5772 103.663 39.6277C102.726 40.6781 102.75 42.3542 103.716 43.3736C106.009 45.7924 107.171 48.2678 107.171 50.7362C107.171 52.2003 108.262 53.3855 109.607 53.3855C110.952 53.3855 112.043 52.2007 112.043 50.7362C112.042 46.7811 110.382 43.0243 107.107 39.5706Z" fill="#97E264"/>
<path d="M12.7914 10.9991H9.74295C8.39784 10.9991 7.30713 12.1839 7.30713 13.6484V50.7362C7.30713 52.2003 8.39784 53.3855 9.74295 53.3855C11.0881 53.3855 12.1788 52.2007 12.1788 50.7362V16.2973H12.7914C14.1365 16.2973 15.2272 15.1126 15.2272 13.648C15.2272 12.1835 14.1365 10.9991 12.7914 10.9991Z" fill="#97E264"/>
<path d="M36.2992 42.9801L26.2934 2.36606C25.9451 0.950813 24.6146 0.107564 23.3109 0.493293L11.5479 3.92139C10.9231 4.10223 10.3915 4.54733 10.0683 5.15541C9.74607 5.7635 9.6583 6.488 9.82599 7.16555L23.0005 60.6426C23.2917 61.8273 24.275 62.6061 25.3514 62.6061C25.5591 62.6061 25.7721 62.5778 25.9829 62.5145C27.2831 62.137 28.0534 60.6833 27.7048 59.2708L15.1611 8.35184L22.2199 6.29553L31.5949 44.3511C31.9421 45.7664 33.275 46.6069 34.5773 46.2239C35.8771 45.8467 36.6474 44.3927 36.2992 42.9801Z" fill="#97E264"/>
<path d="M42.6333 18.9465H34.0999C32.7548 18.9465 31.6641 20.1313 31.6641 21.5958V66.9597C31.6641 68.4238 32.7548 69.609 34.0999 69.609C35.445 69.609 36.5357 68.4242 36.5357 66.9597V24.2447H42.6336C43.9787 24.2447 45.0694 23.0599 45.0694 21.5954C45.0694 20.1309 43.9784 18.9465 42.6333 18.9465Z" fill="#97E264"/>
<path d="M56.0213 8.34985H43.8426C42.4974 8.34985 41.4067 9.53459 41.4067 10.9991V70.512C41.4067 71.7565 42.2038 72.8325 43.3206 73.0987C47.4376 74.0817 51.7098 74.5784 56.0209 74.5784C57.366 74.5784 58.4567 73.3937 58.4567 71.9291V10.9991C58.4567 9.53459 57.3664 8.34985 56.0213 8.34985ZM53.5855 69.2232C51.1161 69.1041 48.6728 68.8092 46.2784 68.3412V13.648H53.5855V69.2232Z" fill="#97E264"/>
<path d="M70.6355 3.05176H58.4568C57.1117 3.05176 56.021 4.2365 56.021 5.70102V63.9872C56.021 65.4514 57.1117 66.6365 58.4568 66.6365C59.8019 66.6365 60.8926 65.4517 60.8926 63.9872V8.3499H68.1997V41.001C68.1997 42.4652 69.2904 43.6503 70.6355 43.6503C71.9806 43.6503 73.0714 42.4656 73.0714 41.001V5.70064C73.071 4.2365 71.9806 3.05176 70.6355 3.05176Z" fill="#97E264"/>
<path d="M39.6673 66.5271C38.8178 66.2217 37.9951 65.8961 37.1969 65.5418C35.9492 64.9803 34.5303 65.6372 34.0225 66.9927C33.8991 67.321 33.8406 67.6602 33.8406 67.9943C33.8416 69.0393 34.4136 70.0273 35.358 70.4468C36.2539 70.8454 37.1805 71.2152 38.1342 71.5567C38.3875 71.6502 38.6444 71.6909 38.8977 71.6909C39.9189 71.6909 40.8708 70.9874 41.2098 69.8748C41.6336 68.4879 40.9425 66.99 39.6673 66.5271Z" fill="#97E264"/>
<path d="M54.572 69.233C49.3389 69.0914 44.199 68.1593 39.7045 66.543C38.4293 66.0855 37.0496 66.8352 36.6275 68.2245C36.2044 69.6141 36.8962 71.112 38.1724 71.5722C43.1711 73.3755 48.6485 74.3717 54.4482 74.5319C54.47 74.5319 54.4903 74.5319 54.5113 74.5319C55.8279 74.5319 56.9118 73.3883 56.9439 71.9498C56.9789 70.4857 55.916 69.2722 54.572 69.233Z" fill="#97E264"/>
<path d="M72.9925 69.0995L72.159 66.6105C71.8486 66.7218 71.5403 66.8356 71.2232 66.9388C71.2221 66.9388 71.2221 66.9388 71.2207 66.9388C71.2207 66.9388 71.2196 66.9388 71.2182 66.9388C69.9298 67.3598 69.1994 68.8375 69.5862 70.2369C69.9034 71.3859 70.8703 72.1255 71.9185 72.1255C72.1505 72.1255 72.3863 72.0891 72.6193 72.0142C72.9811 71.8958 73.3304 71.7685 73.6811 71.642C73.6897 71.6393 73.6964 71.6366 73.7036 71.6343L72.9925 69.0995Z" fill="#97E264"/>
<path d="M80.6338 65.3789L79.1777 63.2395L78.6615 63.5705C77.8644 64.054 77.4148 64.9574 77.4163 65.8857C77.4163 66.3226 77.5162 66.765 77.7267 67.1736C78.1737 68.0433 79.0018 68.5295 79.8542 68.5295C80.2574 68.5295 80.6652 68.4208 81.0423 68.1903L81.6885 67.779L80.6338 65.3789Z" fill="#97E264"/>
<path d="M77.7771 67.1169C77.274 65.7638 75.8625 65.1018 74.6138 65.6474L73.609 66.0638C72.351 66.5783 71.7134 68.1076 72.1865 69.4759C72.5537 70.5396 73.4817 71.1939 74.4664 71.1939C74.7515 71.1939 75.0405 71.1395 75.3238 71.0262L75.5546 70.9304C75.8518 70.8085 76.1466 70.6894 76.437 70.5602C77.6793 70.0118 78.2798 68.4701 77.7771 67.1169Z" fill="#97E264"/>
<path d="M80.083 65.8526C79.5039 64.5305 78.0493 63.9717 76.8362 64.6027L76.0926 64.9624C75.1878 65.4021 74.6501 66.3699 74.6487 67.3812C74.6487 67.7436 74.7183 68.1111 74.8617 68.46C75.2659 69.4456 76.1558 70.0304 77.0866 70.0304C77.4185 70.0304 77.7563 69.9575 78.0792 69.8007L78.9341 69.3843C79.8104 68.9295 80.3217 67.9796 80.3206 66.9916C80.321 66.6086 80.245 66.2205 80.083 65.8526Z" fill="#97E264"/>
<path d="M28.6721 59.8991C28.6679 59.8944 28.6643 59.889 28.6593 59.8839C28.6568 59.8812 28.6543 59.8785 28.6522 59.8758C28.4998 59.7233 28.3478 59.5704 28.199 59.4183C28.0231 59.2366 27.8519 59.0508 27.6899 58.8645C27.6888 58.8618 27.6888 58.8618 27.6874 58.8618C27.6863 58.8591 27.6849 58.8591 27.6849 58.8591C26.7679 57.7853 25.228 57.7287 24.2433 58.7271C23.26 59.7225 23.204 61.397 24.1198 62.4676C24.1209 62.4703 24.1223 62.4703 24.1223 62.4703C24.1234 62.473 24.1234 62.473 24.1248 62.473C24.2825 62.6593 24.4481 62.8405 24.6204 63.0241C24.8609 63.2798 25.1117 63.5332 25.3625 63.7843C25.3636 63.787 25.365 63.787 25.3661 63.787C25.3661 63.7897 25.3672 63.7897 25.3686 63.7897C25.8339 64.2581 26.4201 64.4886 27.0041 64.4886C27.6606 64.4886 28.315 64.1991 28.7967 63.6322C29.7029 62.5631 29.639 60.8948 28.6721 59.8991Z" fill="#97E264"/>
<path d="M37.066 65.482C37.065 65.482 37.065 65.482 37.065 65.482C37.0625 65.4793 37.0614 65.4793 37.0589 65.4793C36.3075 65.1409 35.5757 64.7886 34.8743 64.411C33.6637 63.7587 32.2072 64.2996 31.6121 65.6136C31.4409 65.9892 31.3599 66.3897 31.3599 66.7832C31.3592 67.7588 31.8572 68.7006 32.7171 69.1608C33.5177 69.59 34.3476 69.994 35.205 70.3766C35.5093 70.5136 35.8244 70.5788 36.1337 70.5788C37.0896 70.5788 37.9969 69.9629 38.3862 68.9408C38.8999 67.5907 38.3087 66.0408 37.066 65.482Z" fill="#97E264"/>
<path d="M30.4113 61.4672C29.9796 61.1183 29.5522 60.7636 29.1586 60.3938C29.1515 60.3891 29.1458 60.3814 29.1386 60.3759C28.1204 59.419 26.5837 59.5327 25.7024 60.6375C25.3028 61.1396 25.1069 61.7574 25.1055 62.3706C25.1044 63.1129 25.3888 63.8502 25.9439 64.3753C26.4324 64.8382 26.9626 65.2806 27.5038 65.7176C27.9405 66.0691 28.4493 66.2403 28.9538 66.2403C29.6981 66.2403 30.4327 65.8701 30.9105 65.172C31.7136 63.9969 31.4895 62.3387 30.4113 61.4672Z" fill="#97E264"/>
<path d="M32.4093 62.9375C32.1457 62.7586 31.8838 62.5832 31.628 62.4043C31.3508 62.2084 31.0799 62.0116 30.817 61.8094C29.7227 60.9604 28.2017 61.2452 27.4239 62.4327C26.645 63.6228 26.8998 65.2759 27.9926 66.1242C28.2763 66.3462 28.5706 66.5612 28.87 66.7735C29.1957 67.0032 29.5275 67.231 29.8654 67.4537C30.2611 67.7172 30.6989 67.8418 31.1306 67.8418C31.9494 67.8418 32.7515 67.3912 33.21 66.5775C33.9114 65.3303 33.5536 63.7004 32.4093 62.9375Z" fill="#97E264"/>
<path d="M34.6259 64.2721C33.9751 63.9178 33.3422 63.5503 32.7406 63.1623C31.5807 62.4226 30.0882 62.839 29.4042 64.0959C29.1734 64.5197 29.0649 64.9834 29.0649 65.4409C29.0649 66.349 29.4931 67.231 30.2616 67.725C30.9559 68.1701 31.6866 68.5947 32.4366 69.006C32.7873 69.1973 33.1606 69.2881 33.5284 69.2881C34.4204 69.2881 35.2792 68.7549 35.7077 67.829C35.8836 67.4464 35.9671 67.0401 35.9671 66.6416C35.9674 65.6714 35.4761 64.7374 34.6259 64.2721Z" fill="#97E264"/>
<path d="M27.2249 58.2591L27.0576 58.0472C26.9466 57.9075 26.8364 57.7678 26.7304 57.6281C26.6465 57.5167 26.5641 57.403 26.4867 57.2889C25.6907 56.1092 24.1672 55.8531 23.084 56.7146C21.9993 57.5788 21.7614 59.2346 22.5549 60.4167C22.6419 60.5467 22.7343 60.6755 22.8357 60.8129C23.0305 61.0791 23.252 61.3612 23.5207 61.7003C24.0024 62.3131 24.6838 62.6262 25.3714 62.6262C25.9305 62.6262 26.4931 62.4171 26.9516 61.9926C27.9735 61.0426 28.0958 59.3743 27.2249 58.2591Z" fill="#97E264"/>
<path d="M95.7951 20.6254L90.9845 17.604C89.8178 16.8694 88.3278 17.3067 87.6567 18.5741C86.9848 19.8419 87.3834 21.4617 88.5486 22.1935L91.2499 23.8901L67.8922 67.8911C64.9558 68.6079 61.8967 69.0476 58.7558 69.2105L80.7902 27.7012C81.4617 26.4334 81.0635 24.8137 79.8982 24.0818C78.729 23.3472 77.2433 23.7873 76.5704 25.052L52.4142 70.5583C51.985 71.3681 51.9793 72.3643 52.4003 73.1788C52.8217 73.9961 53.6066 74.5087 54.4665 74.532L54.9992 74.5498C55.3371 74.565 55.6764 74.5782 56.021 74.5782C60.8766 74.5782 65.5995 73.9728 70.0554 72.7799C70.7001 72.6091 71.2521 72.1586 71.5839 71.5327L96.6871 24.2448C97.3585 22.9774 96.9604 21.3573 95.7951 20.6254Z" fill="#97E264"/>
<path d="M26.0691 56.5695L25.8907 56.2696C25.7769 56.0783 25.6588 55.8869 25.5614 55.6902C24.9263 54.4018 23.4528 53.9125 22.2636 54.6087C21.4448 55.0848 20.9781 56.0003 20.9795 56.9471C20.9795 57.3689 21.0726 57.7954 21.2689 58.1943C21.4308 58.5226 21.6203 58.8439 21.8126 59.1645L21.9625 59.4155C22.4263 60.2103 23.2137 60.6422 24.0186 60.6422C24.4657 60.6422 24.9192 60.5079 25.3234 60.2281C26.0531 59.7209 26.4513 58.8645 26.4513 57.9902C26.4509 57.5036 26.3271 57.0092 26.0691 56.5695Z" fill="#97E264"/>
<path d="M90.3529 50.0711C89.0149 49.8386 87.7737 50.8189 87.5578 52.2624L87.4743 52.713C87.4383 52.8938 87.4219 53.0747 87.4219 53.2508C87.4219 54.4666 88.2182 55.5198 89.366 55.7833C89.528 55.8198 89.6893 55.8376 89.8488 55.8376C90.9862 55.8376 92.0184 54.935 92.2642 53.6792C92.3014 53.4907 92.3381 53.3017 92.3667 53.1104C92.3881 52.966 92.3977 52.8236 92.3977 52.6812C92.3984 51.4064 91.5482 50.283 90.3529 50.0711Z" fill="#97E264"/>
<path d="M25.212 54.8338L25.05 54.4457C24.9965 54.3219 24.9391 54.1973 24.8977 54.0681C24.4513 52.6866 23.0588 51.9493 21.7922 52.446C20.7892 52.8287 20.1616 53.8508 20.1616 54.9447C20.1616 55.2369 20.2073 55.5315 20.2997 55.8217C20.3946 56.1143 20.5127 56.4011 20.6351 56.6859L20.7446 56.9448C21.1428 57.9436 22.0387 58.5382 22.9792 58.5382C23.3025 58.5382 23.6321 58.4687 23.9486 58.3181C24.867 57.8862 25.415 56.9106 25.415 55.8862C25.4143 55.535 25.3504 55.178 25.212 54.8338Z" fill="#97E264"/>
<path d="M84.5932 62.4477C83.8133 61.2576 82.2933 60.9836 81.1955 61.8292L80.5283 62.3232C79.4133 63.1358 79.1125 64.7757 79.8561 65.9915C80.3249 66.7598 81.0977 67.1735 81.8862 67.1735C82.3465 67.1735 82.8132 67.0311 83.226 66.7369C83.4957 66.5429 83.7655 66.3462 84.0263 66.1444C84.6913 65.6271 85.0456 64.8145 85.0467 63.9895C85.0474 63.4547 84.9001 62.9161 84.5932 62.4477Z" fill="#97E264"/>
<path d="M24.6444 53.015L24.492 52.4096C24.2587 50.9711 22.9996 50.0292 21.6744 50.2625C20.4906 50.4875 19.6582 51.6055 19.6582 52.8679C19.6582 53.0204 19.6703 53.176 19.6953 53.3308C19.736 53.5819 19.7963 53.8303 19.9108 54.2622C20.1813 55.4756 21.1774 56.2882 22.2753 56.2882C22.4651 56.2882 22.6581 56.2645 22.8515 56.2125C23.9657 55.9199 24.7143 54.8338 24.7129 53.6409C24.7129 53.4344 24.6918 53.2245 24.6444 53.015Z" fill="#97E264"/>
<path d="M86.2787 60.4839L84.3659 58.8362L84.0841 59.1699C83.6213 59.6845 83.3894 60.3519 83.3894 61.0198C83.3894 61.7078 83.6331 62.3958 84.1219 62.9158C84.5961 63.4203 85.2101 63.6714 85.8249 63.6714C86.4575 63.6714 87.089 63.4052 87.5671 62.8747C87.7169 62.709 87.8582 62.5382 88.0891 62.2561L86.2787 60.4839Z" fill="#97E264"/>
<path d="M91.9513 54.6529C91.9503 53.5431 91.3023 52.5085 90.2805 52.141C88.9967 51.6781 87.6231 52.4332 87.2024 53.8225C87.1989 53.833 87.0704 54.2594 87.0679 54.2676C86.9595 54.578 86.9084 54.8935 86.9084 55.2067C86.9084 56.275 87.5089 57.2843 88.483 57.6848C88.7673 57.8012 89.0585 57.8556 89.3453 57.8556C90.3283 57.8556 91.2542 57.2032 91.6234 56.1454C91.683 55.975 91.7344 55.8043 91.7844 55.6335L89.5148 54.6553L91.8268 55.4884C91.9114 55.2117 91.9513 54.9296 91.9513 54.6529Z" fill="#97E264"/>
<path d="M86.1488 60.9631C85.3224 59.8397 83.7276 59.724 82.6761 60.5956C82.6522 60.6142 82.4617 60.7772 82.4381 60.7978C81.8755 61.2992 81.5972 62.0004 81.5972 62.7171C81.5972 63.3066 81.7841 63.9065 82.1563 64.4164C82.6222 65.0583 83.3333 65.3815 84.0555 65.3815C84.6085 65.3815 85.1672 65.1902 85.6271 64.8126L85.9193 64.5589C86.4613 64.0594 86.7257 63.3846 86.7268 62.6884C86.7268 62.0912 86.532 61.4804 86.1488 60.9631Z" fill="#97E264"/>
<path d="M88.9858 56.6033C87.8891 55.755 86.367 56.029 85.5892 57.2246L85.2584 57.693C84.9213 58.1664 84.7593 58.7174 84.7593 59.2658C84.7593 60.052 85.0947 60.8308 85.719 61.3613C86.1518 61.728 86.6688 61.9018 87.1855 61.9018C87.934 61.9018 88.6815 61.5351 89.1717 60.8541C89.3037 60.6678 89.4347 60.4866 89.5571 60.2976C89.8614 59.8319 90.0088 59.2968 90.0088 58.7663C90.0098 57.9359 89.6545 57.1206 88.9858 56.6033Z" fill="#97E264"/>
<path d="M89.7112 54.7588C88.5374 54.0681 87.0296 54.611 86.3835 55.8815C86.179 56.2827 86.0827 56.7119 86.0837 57.1364C86.0837 58.0344 86.519 58.906 87.2865 59.4027C87.6683 59.651 88.0903 59.7675 88.5092 59.7675C89.3277 59.7675 90.1326 59.3224 90.6022 58.5249C90.64 58.4601 90.7185 58.3185 90.7506 58.2505C90.9358 57.8679 91.0228 57.4643 91.0228 57.0685C91.0214 56.1352 90.5361 55.2423 89.7112 54.7588Z" fill="#97E264"/>
<path d="M95.6159 32.893L87.9959 1.95977C87.8296 1.28144 87.4204 0.702075 86.8613 0.350495C86.3022 0.00395965 85.6375 -0.0891741 85.0131 0.0870039L73.25 3.5151C72.6253 3.69594 72.0937 4.14104 71.7704 4.74912C71.4482 5.35721 71.3604 6.08171 71.5281 6.75926L81.508 47.2697C81.7991 48.4545 82.7824 49.2333 83.8589 49.2333C84.0672 49.2333 84.2802 49.205 84.4904 49.1421C85.7905 48.7645 86.5609 47.3108 86.2123 45.8983L76.8629 7.94594L83.9217 5.88962L90.9116 34.2644C91.2598 35.6769 92.5878 36.5174 93.894 36.1371C95.1938 35.7592 95.9641 34.3055 95.6159 32.893Z" fill="#97E264"/>
<path d="M117.976 23.8986C117.886 23.2051 117.546 22.5769 117.03 22.1523L107.303 14.1816C106.227 13.2996 104.701 13.5371 103.892 14.7043L66.343 68.8977C65.7293 69.7825 65.689 70.9905 66.2395 71.9242C66.6937 72.6925 67.4715 73.1399 68.2886 73.1399C68.462 73.1399 68.6382 73.1194 68.8141 73.0782C81.9619 69.9226 90.8689 62.3578 92.3413 53.3859H97.2269C97.9918 53.3859 98.7122 52.9951 99.1725 52.3304L117.51 25.8621C117.898 25.3006 118.066 24.5944 117.976 23.8986ZM96.0113 48.0862H90.1207C88.7756 48.0862 87.6849 49.2709 87.6849 50.7354C87.6849 56.5846 82.6958 62.116 74.7312 65.593L106.317 20.0068L112.153 24.7899L96.0113 48.0862Z" fill="#97E264"/>
<path d="M111.391 48.933C110.931 48.3924 110.284 48.0874 109.607 48.0874H90.1215C88.7764 48.0874 87.6857 49.2721 87.6857 50.7367C87.6857 60.7874 73.186 69.2808 56.0215 69.2808C38.857 69.2808 24.3573 60.7877 24.3573 50.7367C24.3573 49.2725 23.2666 48.0874 21.9215 48.0874H2.43641C1.75922 48.0874 1.11272 48.3928 0.652457 48.933C0.190769 49.4716 -0.0422164 50.1961 0.00630724 50.9303L7.3134 159.545C7.40723 160.929 8.46655 162 9.74315 162H102.299C103.575 162 104.635 160.929 104.73 159.545L112.037 50.9303C112.086 50.1949 111.853 49.4704 111.391 48.933ZM100.035 156.702H12.0066L5.05527 53.3852H19.6987C21.6582 65.4638 36.9082 74.5781 56.0212 74.5781C75.1341 74.5781 90.3834 65.4638 92.3436 53.3852H106.986L100.035 156.702Z" fill="#97E264"/>
<path d="M56.0214 93.1222C43.9343 93.1222 34.1001 103.817 34.1001 116.964C34.1001 130.112 43.9343 140.807 56.0214 140.807C68.108 140.807 77.9426 130.112 77.9426 116.964C77.9426 103.817 68.1084 93.1222 56.0214 93.1222ZM56.0214 135.509C46.6203 135.509 38.9714 127.189 38.9714 116.964C38.9714 106.74 46.6199 98.4203 56.0214 98.4203C65.4228 98.4203 73.0714 106.74 73.0714 116.964C73.0714 127.189 65.4225 135.509 56.0214 135.509Z" fill="#97E264"/>
</svg>
