<svg width="135" height="161" viewBox="0 0 135 161" fill="none" xmlns="http://www.w3.org/2000/svg">
<path d="M26.6475 78.1756C26.6575 78.1286 27.745 73.7917 31.5225 73.7917C33.67 73.7917 36.0225 77.6188 36.6775 78.9672C36.6775 78.9672 36.68 78.9672 36.68 78.9705C37.095 79.8292 40.8 87.2084 46.035 87.2084C51.94 87.2084 54.92 81.2983 55.67 78.1756C55.68 78.132 56.7175 74.1238 60.19 73.842C62.2675 74.1171 64.4625 77.6658 65.0975 78.9605C65.0975 78.9605 65.0975 78.9605 65.0975 78.9638C65.5025 79.8091 69.215 87.2084 74.4525 87.2084C80.3575 87.2084 83.3375 81.2983 84.0875 78.1756C84.1 78.1286 85.185 73.7917 88.965 73.7917C91.1125 73.7917 93.47 77.6289 94.1225 78.9739C94.545 79.846 98.2475 87.2084 103.477 87.2084C109.382 87.2084 112.362 81.2983 113.112 78.1756C113.122 78.1286 114.21 73.7917 117.987 73.7917C120.132 73.7917 122.48 77.6088 123.142 78.9605C123.142 78.9605 123.142 78.9605 123.142 78.9638C123.547 79.8057 127.255 87.2084 132.5 87.2084C133.882 87.2084 135 85.7057 135 83.8542C135 82.0027 133.882 80.5 132.5 80.5C130.358 80.5 128.012 76.6931 127.347 75.338C127.347 75.3346 127.347 75.3313 127.345 75.3279C126.937 74.486 123.23 67.0834 117.987 67.0834C112.082 67.0834 109.102 72.9934 108.352 76.1162C108.342 76.1631 107.255 80.5 103.477 80.5C101.33 80.5 98.9775 76.6729 98.3225 75.3246C98.3225 75.3246 98.32 75.3246 98.32 75.3212C97.905 74.4625 94.2 67.0834 88.965 67.0834C83.06 67.0834 80.08 72.9934 79.33 76.1162C79.32 76.1631 78.2325 80.5 74.4525 80.5C72.305 80.5 69.9475 76.6629 69.295 75.3179C68.92 74.5397 65.905 68.5995 61.5275 67.3517C61.225 67.1806 60.8925 67.0834 60.5475 67.0834C60.4225 67.0834 60.32 67.1236 60.2 67.127C60.11 67.1236 60.0325 67.0834 59.9425 67.0834C59.7575 67.0834 59.595 67.1739 59.4225 67.2242C54.2825 67.932 51.6125 73.2047 50.9125 76.1162C50.9 76.1631 49.815 80.5 46.035 80.5C43.8875 80.5 41.53 76.6629 40.8775 75.3179C40.455 74.4458 36.7525 67.0834 31.5225 67.0834C25.6175 67.0834 22.6375 72.9934 21.8875 76.1162C21.8775 76.1631 20.79 80.5 17.0125 80.5C14.865 80.5 12.5075 76.6629 11.855 75.3179C11.4325 74.4458 7.7325 67.0834 2.5 67.0834C1.1175 67.0834 0 68.586 0 70.4375C0 72.289 1.1175 73.7917 2.5 73.7917C4.6475 73.7917 6.995 77.6121 7.655 78.9638C7.655 78.9638 7.655 78.9638 7.655 78.9672C8.0625 79.8091 11.7725 87.2084 17.0125 87.2084C22.9175 87.2084 25.895 81.2983 26.6475 78.1756Z" fill="#97E264"/>
<path d="M75 20.125C76.3807 20.125 77.5 18.6232 77.5 16.7708C77.5 14.9183 76.3807 13.4166 75 13.4166C73.6193 13.4166 72.5 14.9183 72.5 16.7708C72.5 18.6232 73.6193 20.125 75 20.125Z" fill="#97E264"/>
<path d="M94.9995 51.151C96.3802 51.151 97.4995 49.6493 97.4995 47.7968C97.4995 45.9443 96.3802 44.4426 94.9995 44.4426C93.6188 44.4426 92.4995 45.9443 92.4995 47.7968C92.4995 49.6493 93.6188 51.151 94.9995 51.151Z" fill="#97E264"/>
<path d="M87.5 34.3802C88.8807 34.3802 90 32.8785 90 31.026C90 29.1736 88.8807 27.6719 87.5 27.6719C86.1193 27.6719 85 29.1736 85 31.026C85 32.8785 86.1193 34.3802 87.5 34.3802Z" fill="#97E264"/>
<path d="M75 51.151C76.3807 51.151 77.5 49.6493 77.5 47.7968C77.5 45.9443 76.3807 44.4426 75 44.4426C73.6193 44.4426 72.5 45.9443 72.5 47.7968C72.5 49.6493 73.6193 51.151 75 51.151Z" fill="#97E264"/>
<path d="M105 41.0886C106.381 41.0886 107.5 39.5869 107.5 37.7344C107.5 35.882 106.381 34.3802 105 34.3802C103.619 34.3802 102.5 35.882 102.5 37.7344C102.5 39.5869 103.619 41.0886 105 41.0886Z" fill="#97E264"/>
<path d="M52.5 51.151C53.8807 51.151 55 49.6493 55 47.7968C55 45.9443 53.8807 44.4426 52.5 44.4426C51.1193 44.4426 50 45.9443 50 47.7968C50 49.6493 51.1193 51.151 52.5 51.151Z" fill="#97E264"/>
<path d="M45.0005 27.6718C46.3812 27.6718 47.5005 26.1701 47.5005 24.3177C47.5005 22.4652 46.3812 20.9635 45.0005 20.9635C43.6198 20.9635 42.5005 22.4652 42.5005 24.3177C42.5005 26.1701 43.6198 27.6718 45.0005 27.6718Z" fill="#97E264"/>
<path d="M32.4995 44.4427C33.8802 44.4427 34.9995 42.941 34.9995 41.0885C34.9995 39.2361 33.8802 37.7344 32.4995 37.7344C31.1188 37.7344 29.9995 39.2361 29.9995 41.0885C29.9995 42.941 31.1188 44.4427 32.4995 44.4427Z" fill="#97E264"/>
<path d="M62.5005 34.3802C63.8812 34.3802 65.0005 32.8785 65.0005 31.026C65.0005 29.1736 63.8812 27.6719 62.5005 27.6719C61.1198 27.6719 60.0005 29.1736 60.0005 31.026C60.0005 32.8785 61.1198 34.3802 62.5005 34.3802Z" fill="#97E264"/>
<path d="M60.5475 67.0833H67.5C68.8825 67.0833 70 65.5807 70 63.7292C70 61.8777 68.8825 60.375 67.5 60.375H12.615C14.42 31.4185 39.285 6.70833 67.5 6.70833C95.715 6.70833 120.58 31.4185 122.385 60.375H112.5C111.118 60.375 110 61.8777 110 63.7292C110 65.5807 111.118 67.0833 112.5 67.0833H117.987H125C126.382 67.0833 127.5 65.5807 127.5 63.7292C127.5 29.1846 100.025 0 67.5 0C34.975 0 7.5 29.1846 7.5 63.7292C7.5 65.5807 8.6175 67.0833 10 67.0833H31.5225H59.94H60.5475Z" fill="#97E264"/>
<path d="M104.999 63.7292C104.999 61.8777 103.882 60.375 102.499 60.375H77.4995C76.117 60.375 74.9995 61.8777 74.9995 63.7292C74.9995 65.5807 76.117 67.0833 77.4995 67.0833H88.9645H102.499C103.882 67.0833 104.999 65.5807 104.999 63.7292Z" fill="#97E264"/>
<path d="M118.483 87.2084H114.637H103.477H74.4525H46.035H19.635H17.01H16.5175C7.41 87.2084 0 96.2344 0 107.333C0 114.377 2.99 120.576 7.5 124.175V147C7.5 154.718 11.95 161 17.42 161H117.58C123.05 161 127.5 154.718 127.5 147V124.175C132.01 120.579 135 114.38 135 107.333C135 96.2344 127.59 87.2084 118.483 87.2084ZM108.055 93.9167L69.635 139.671C68.3325 141.227 65.9375 141.227 64.6325 139.671L45.4275 116.802C44.96 116.245 44.3675 115.957 43.7675 115.957C43.42 115.957 43.0725 116.054 42.7425 116.252C41.8475 116.795 41.2675 117.993 41.2675 119.311V132.731C41.2675 135.109 40.02 137.045 38.49 137.045C36.96 137.045 35.7125 135.109 35.7125 132.731V106.736C35.7125 105.777 35.4075 104.865 34.8725 104.227L26.2175 93.9167H108.055ZM16.5175 93.9167H18.685L30.7125 108.242V120.75H16.5175C10.165 120.75 5 114.733 5 107.333C5 99.9341 10.165 93.9167 16.5175 93.9167ZM122.5 127.458V147C122.5 151.018 120.293 154.292 117.58 154.292H17.42C14.7075 154.292 12.5 151.018 12.5 147V127.458H16.5175H30.7125V132.728C30.7125 138.806 34.2025 143.75 38.49 143.75C42.7775 143.75 46.2675 138.806 46.2675 132.728V126.771L61.315 144.689C62.885 146.557 64.9525 147.583 67.135 147.583C69.3175 147.583 71.385 146.554 72.955 144.689L87.425 127.458H118.483H122.5ZM118.483 120.75H93.0575L115.588 93.9167H118.483C124.835 93.9167 130 99.9341 130 107.333C130 114.733 124.835 120.75 118.483 120.75Z" fill="#97E264"/>
</svg>
