<svg width="141" height="150" viewBox="0 0 141 150" fill="none" xmlns="http://www.w3.org/2000/svg">
<path d="M27.8318 72.5432C27.8423 72.4996 28.9781 68.4751 32.9235 68.4751C35.1664 68.4751 37.6235 72.0265 38.3076 73.2777C38.3076 73.2777 38.3102 73.2777 38.3102 73.2808C38.7437 74.0776 42.6133 80.9251 48.081 80.9251C54.2484 80.9251 57.3609 75.4409 58.1442 72.5432C58.1547 72.5027 59.2383 68.7833 62.8651 68.5218C65.0349 68.777 67.3275 72.0701 67.9907 73.2715C67.9907 73.2715 67.9907 73.2715 67.9907 73.2746C68.4137 74.0589 72.2912 80.9251 77.7615 80.9251C83.9289 80.9251 87.0414 75.4409 87.8247 72.5432C87.8378 72.4996 88.971 68.4751 92.919 68.4751C95.1619 68.4751 97.6242 72.0358 98.3057 73.2839C98.747 74.0932 102.614 80.9251 108.076 80.9251C114.244 80.9251 117.356 75.4409 118.14 72.5432C118.15 72.4996 119.286 68.4751 123.231 68.4751C125.472 68.4751 127.924 72.0171 128.616 73.2715C128.616 73.2715 128.616 73.2715 128.616 73.2746C129.039 74.0558 132.911 80.9251 138.389 80.9251C139.833 80.9251 141 79.5307 141 77.8126C141 76.0945 139.833 74.7001 138.389 74.7001C136.151 74.7001 133.702 71.1674 133.007 69.91C133.007 69.9069 133.007 69.9038 133.005 69.9006C132.579 69.1194 128.707 62.2501 123.231 62.2501C117.064 62.2501 113.952 67.7343 113.168 70.6321C113.158 70.6757 112.022 74.7001 108.076 74.7001C105.834 74.7001 103.376 71.1488 102.692 69.8975C102.692 69.8975 102.69 69.8975 102.69 69.8944C102.256 69.0976 98.3867 62.2501 92.919 62.2501C86.7516 62.2501 83.6391 67.7343 82.8558 70.6321C82.8453 70.6757 81.7095 74.7001 77.7615 74.7001C75.5186 74.7001 73.0563 71.1394 72.3748 69.8913C71.9831 69.1692 68.8341 63.657 64.2621 62.4991C63.9461 62.3404 63.5988 62.2501 63.2385 62.2501C63.1079 62.2501 63.0009 62.2875 62.8756 62.2906C62.7816 62.2875 62.7006 62.2501 62.6066 62.2501C62.4134 62.2501 62.2437 62.3342 62.0635 62.3808C56.6951 63.0376 53.9064 67.9304 53.1753 70.6321C53.1622 70.6757 52.029 74.7001 48.081 74.7001C45.8381 74.7001 43.3758 71.1394 42.6943 69.8913C42.253 69.0821 38.3859 62.2501 32.9235 62.2501C26.7561 62.2501 23.6436 67.7343 22.8603 70.6321C22.8498 70.6757 21.714 74.7001 17.7686 74.7001C15.5257 74.7001 13.0634 71.1394 12.3819 69.8913C11.9406 69.0821 8.07617 62.2501 2.61111 62.2501C1.16717 62.2501 0 63.6445 0 65.3626C0 67.0807 1.16717 68.4751 2.61111 68.4751C4.85406 68.4751 7.30589 72.0203 7.99522 73.2746C7.99522 73.2746 7.99522 73.2746 7.99522 73.2777C8.42083 74.0589 12.2957 80.9251 17.7686 80.9251C23.9361 80.9251 27.0459 75.4409 27.8318 72.5432Z" fill="#97E264"/>
<path d="M78.3333 18.675C79.7754 18.675 80.9444 17.2814 80.9444 15.5625C80.9444 13.8435 79.7754 12.45 78.3333 12.45C76.8912 12.45 75.7222 13.8435 75.7222 15.5625C75.7222 17.2814 76.8912 18.675 78.3333 18.675Z" fill="#97E264"/>
<path d="M99.222 47.4656C100.664 47.4656 101.833 46.0721 101.833 44.3531C101.833 42.6341 100.664 41.2406 99.222 41.2406C97.7799 41.2406 96.6108 42.6341 96.6108 44.3531C96.6108 46.0721 97.7799 47.4656 99.222 47.4656Z" fill="#97E264"/>
<path d="M91.3889 31.9031C92.831 31.9031 94.0001 30.5096 94.0001 28.7906C94.0001 27.0716 92.831 25.6781 91.3889 25.6781C89.9469 25.6781 88.7778 27.0716 88.7778 28.7906C88.7778 30.5096 89.9469 31.9031 91.3889 31.9031Z" fill="#97E264"/>
<path d="M78.3333 47.4656C79.7754 47.4656 80.9444 46.0721 80.9444 44.3531C80.9444 42.6341 79.7754 41.2406 78.3333 41.2406C76.8912 41.2406 75.7222 42.6341 75.7222 44.3531C75.7222 46.0721 76.8912 47.4656 78.3333 47.4656Z" fill="#97E264"/>
<path d="M109.667 38.1282C111.109 38.1282 112.278 36.7347 112.278 35.0157C112.278 33.2967 111.109 31.9032 109.667 31.9032C108.225 31.9032 107.056 33.2967 107.056 35.0157C107.056 36.7347 108.225 38.1282 109.667 38.1282Z" fill="#97E264"/>
<path d="M54.8333 47.4656C56.2754 47.4656 57.4444 46.0721 57.4444 44.3531C57.4444 42.6341 56.2754 41.2406 54.8333 41.2406C53.3912 41.2406 52.2222 42.6341 52.2222 44.3531C52.2222 46.0721 53.3912 47.4656 54.8333 47.4656Z" fill="#97E264"/>
<path d="M47.0003 25.678C48.4423 25.678 49.6114 24.2845 49.6114 22.5655C49.6114 20.8465 48.4423 19.453 47.0003 19.453C45.5582 19.453 44.3892 20.8465 44.3892 22.5655C44.3892 24.2845 45.5582 25.678 47.0003 25.678Z" fill="#97E264"/>
<path d="M33.9441 41.2406C35.3862 41.2406 36.5552 39.8471 36.5552 38.1281C36.5552 36.4091 35.3862 35.0156 33.9441 35.0156C32.502 35.0156 31.333 36.4091 31.333 38.1281C31.333 39.8471 32.502 41.2406 33.9441 41.2406Z" fill="#97E264"/>
<path d="M65.2781 31.9031C66.7202 31.9031 67.8892 30.5096 67.8892 28.7906C67.8892 27.0716 66.7202 25.6781 65.2781 25.6781C63.836 25.6781 62.667 27.0716 62.667 28.7906C62.667 30.5096 63.836 31.9031 65.2781 31.9031Z" fill="#97E264"/>
<path d="M63.2382 62.25H70.4997C71.9436 62.25 73.1108 60.8556 73.1108 59.1375C73.1108 57.4194 71.9436 56.025 70.4997 56.025H13.1753C15.0606 29.1548 41.0307 6.225 70.4997 6.225C99.9687 6.225 125.939 29.1548 127.824 56.025H117.5C116.056 56.025 114.889 57.4194 114.889 59.1375C114.889 60.8556 116.056 62.25 117.5 62.25H123.231H130.555C131.999 62.25 133.166 60.8556 133.166 59.1375C133.166 27.0819 104.47 0 70.4997 0C36.5291 0 7.83301 27.0819 7.83301 59.1375C7.83301 60.8556 9.00017 62.25 10.4441 62.25H32.9232H62.6037H63.2382Z" fill="#97E264"/>
<path d="M109.666 59.1375C109.666 57.4194 108.499 56.025 107.055 56.025H80.9441C79.5002 56.025 78.333 57.4194 78.333 59.1375C78.333 60.8556 79.5002 62.25 80.9441 62.25H92.9187H107.055C108.499 62.25 109.666 60.8556 109.666 59.1375Z" fill="#97E264"/>
<path d="M123.748 80.925H119.733H108.076H77.7615H48.081H20.5077H17.766H17.2516C7.73933 80.925 0 89.3008 0 99.6C0 106.136 3.12289 111.888 7.83333 115.228V136.408C7.83333 143.57 12.4811 149.4 18.1942 149.4H122.806C128.519 149.4 133.167 143.57 133.167 136.408V115.228C137.877 111.891 141 106.139 141 99.6C141 89.3008 133.261 80.925 123.748 80.925ZM112.857 87.15L72.7299 129.608C71.3695 131.052 68.8681 131.052 67.5051 129.608L47.4465 108.387C46.9582 107.87 46.3394 107.602 45.7127 107.602C45.3498 107.602 44.9868 107.693 44.6422 107.876C43.7074 108.38 43.1016 109.492 43.1016 110.715V123.168C43.1016 125.375 41.7987 127.171 40.2007 127.171C38.6027 127.171 37.2997 125.375 37.2997 123.168V99.046C37.2997 98.1558 36.9812 97.3093 36.4224 96.7179L27.3827 87.15H112.857ZM17.2516 87.15H19.5154L32.0775 100.444V112.05H17.2516C10.6168 112.05 5.22222 106.466 5.22222 99.6C5.22222 92.7339 10.6168 87.15 17.2516 87.15ZM127.944 118.275V136.408C127.944 140.137 125.639 143.175 122.806 143.175H18.1942C15.3612 143.175 13.0556 140.137 13.0556 136.408V118.275H17.2516H32.0775V123.165C32.0775 128.805 35.7226 133.392 40.2007 133.392C44.6787 133.392 48.3238 128.805 48.3238 123.165V117.637L64.0401 134.264C65.6799 135.998 67.8393 136.95 70.1188 136.95C72.3983 136.95 74.5577 135.995 76.1974 134.264L91.3106 118.275H123.748H127.944ZM123.748 112.05H97.1934L120.725 87.15H123.748C130.383 87.15 135.778 92.7339 135.778 99.6C135.778 106.466 130.383 112.05 123.748 112.05Z" fill="#97E264"/>
</svg>
