<svg width="120" height="160" viewBox="0 0 120 160" fill="none" xmlns="http://www.w3.org/2000/svg">
<path d="M119.751 21.717C118.815 18.8007 117.659 16.3358 116.314 14.3906C114.646 11.9784 111.554 10.4798 108.245 10.4798H105.847L104.543 6.70023C103.184 2.75543 98.843 0 93.9881 0H86.0194C84.4913 0 83.2524 1.04851 83.2524 2.34252C83.2524 3.63653 84.4913 4.68504 86.0194 4.68504H93.9881C96.3995 4.68504 98.5556 6.05369 99.2311 8.01329L100.082 10.4798H19.9181L20.7685 8.01329C21.4448 6.05182 23.5983 4.68504 25.108 4.68504H73.0634C74.5915 4.68504 75.8304 3.63653 75.8304 2.34252C75.8304 1.04851 74.5915 0 73.0634 0H25.108C20.9227 0 16.7733 2.88067 15.4562 6.70054L14.1531 10.4801H11.7553C8.44596 10.4801 5.35425 11.9787 3.68628 14.3909C2.34113 16.3364 1.1845 18.8011 0.248874 21.7173C-0.327777 23.5155 0.108309 25.396 1.44645 26.8774C2.78717 28.3617 4.82187 29.2131 7.02886 29.2131H9.75827L12.0612 58.0542C11.7911 58.2241 11.5347 58.4115 11.3023 58.6223C10.2386 59.5881 9.69039 60.8974 9.79922 62.2148L11.7199 85.5035C11.8265 86.7938 13.1473 87.7708 14.6729 87.6771C16.1974 87.5871 17.347 86.4677 17.2404 85.1771L15.3197 61.8884C15.3186 61.8753 15.3163 61.8475 15.3492 61.8175C15.382 61.7875 15.4134 61.7875 15.4303 61.7875H104.569C104.586 61.7875 104.617 61.7875 104.65 61.8175C104.684 61.8475 104.681 61.8753 104.68 61.8884L99.669 122.652C99.665 122.701 99.6163 122.74 99.5583 122.74H20.4413C20.3833 122.74 20.3346 122.701 20.3306 122.652L18.142 96.1136C18.0354 94.823 16.7146 93.8469 15.1891 93.94C13.6646 94.03 12.515 95.1494 12.6216 96.44L14.8102 122.978C14.9422 124.581 16.0144 125.957 17.5455 126.738L19.8654 155.792C20.0539 158.152 22.3572 160 25.1091 160H94.8913C97.6432 160 99.9468 158.152 100.135 155.792L102.455 126.738C103.986 125.957 105.058 124.581 105.19 122.979L110.201 62.2148C110.31 60.8974 109.762 59.5881 108.698 58.6223C108.466 58.4115 108.209 58.2241 107.939 58.0542L110.242 29.2131H112.971C115.178 29.2131 117.214 28.3617 118.554 26.8774C119.892 25.396 120.328 23.5151 119.751 21.717ZM94.626 155.315H25.3736L23.1467 127.425H96.8529L94.626 155.315ZM102.468 57.1025H17.5318L15.3049 29.2128H104.695L102.468 57.1025ZM114.158 24.0314C113.99 24.2167 113.613 24.5277 112.971 24.5277H7.02886C6.38654 24.5277 6.00986 24.2167 5.84236 24.0314C5.6767 23.8478 5.42324 23.4627 5.58926 22.9448C6.38543 20.4633 7.37899 18.3235 8.46219 16.7571C9.14141 15.7748 10.4032 15.1645 11.7553 15.1645H108.244C109.596 15.1645 110.858 15.7748 111.538 16.7571C112.621 18.3235 113.614 20.463 114.41 22.9448C114.577 23.4627 114.323 23.8481 114.158 24.0314Z" fill="#97E264"/>
<path d="M80.8932 92.2635C80.8932 82.5101 71.5203 74.5756 59.9998 74.5756C48.4793 74.5756 39.1064 82.5101 39.1064 92.2635C39.1064 102.017 48.4793 109.952 59.9998 109.952C71.5203 109.952 80.8932 102.017 80.8932 92.2635ZM44.6402 92.2635C44.6402 85.0938 51.5305 79.2606 59.9994 79.2606C68.4684 79.2606 75.3587 85.0938 75.3587 92.2635C75.3587 99.4334 68.4684 105.267 59.9994 105.267C51.5305 105.267 44.6402 99.4334 44.6402 92.2635Z" fill="#97E264"/>
</svg>
