<svg width="159" height="19" viewBox="0 0 159 19" fill="none" xmlns="http://www.w3.org/2000/svg">
<path d="M11.4838 18.1901C10.6775 18.1901 9.85561 18.1335 9.01969 18.0197C5.91858 17.5871 3.6441 16.2968 1.64567 14.9663C-0.227914 13.7191 -0.549539 11.4252 0.927685 9.84309C2.40469 8.26095 5.12111 7.98936 6.99469 9.23679C8.29199 10.1003 9.31604 10.6663 10.4109 10.8191C12.3202 11.0792 13.7972 10.6838 15.1843 9.53593C16.2663 8.64454 17.3519 7.7008 18.4019 6.78825C19.0432 6.23066 19.6843 5.67343 20.3305 5.12185C24.0762 1.92091 28.95 0.143053 34.0528 0.117335C39.1659 0.0896099 44.0564 1.82095 47.8498 4.98669C48.7572 5.74183 49.6463 6.51593 50.5062 7.2645C51.3369 7.98771 52.1214 8.67081 52.929 9.34551C55.2852 11.3162 58.4506 11.3156 60.8085 9.34568C61.688 8.61025 62.5801 7.83487 63.4426 7.08484C64.341 6.3038 65.27 5.49613 66.2187 4.70342C73.6981 -1.54451 85.4409 -1.5633 92.9528 4.66038C94.2552 5.73526 95.5316 6.84826 96.7662 7.92461C97.2095 8.31093 97.6527 8.69744 98.0979 9.08285C99.4155 10.2161 100.887 10.8202 102.345 10.822C102.347 10.822 102.349 10.822 102.351 10.822C103.823 10.822 105.316 10.2099 106.67 9.05148C107.399 8.42676 108.124 7.79529 108.848 7.16418C109.755 6.37421 110.692 5.5576 111.637 4.75632C119.121 -1.56348 130.864 -1.5872 138.379 4.69612C139.324 5.48573 140.249 6.29012 141.144 7.06824C142.01 7.821 142.905 8.59949 143.789 9.33875C146.062 11.2423 149.098 11.307 151.527 9.50638C153.319 8.17668 156.049 8.32625 157.623 9.84017C159.198 11.3541 159.021 13.6591 157.228 14.9884C151.4 19.3098 143.192 19.1132 137.708 14.5215C136.766 13.734 135.841 12.9293 134.946 12.1515C134.08 11.3986 133.185 10.6201 132.301 9.88103C128.143 6.40485 121.889 6.41671 117.754 9.90894C116.857 10.6697 115.94 11.4692 115.053 12.242C114.311 12.8879 113.57 13.534 112.821 14.1751C109.848 16.7187 106.131 18.1179 102.35 18.118C102.345 18.118 102.339 18.118 102.333 18.118C98.5627 18.1137 94.8656 16.7172 91.9227 14.1857C91.4608 13.786 91.0103 13.3931 90.5599 13.0006C89.3112 11.9117 88.1314 10.8833 86.9078 9.87337C82.7286 6.41087 76.4493 6.42017 72.2956 9.88997C71.4083 10.6312 70.5095 11.4128 69.6405 12.1683C68.7491 12.9433 67.8272 13.7448 66.8865 14.5315C61.1714 19.3056 52.5588 19.3047 46.8514 14.531C45.9823 13.8052 45.1293 13.0625 44.3044 12.3443C43.4397 11.5916 42.623 10.8806 41.7808 10.1796C39.6403 8.3932 36.9388 7.41316 34.1642 7.41316C34.1444 7.41316 34.1247 7.41316 34.1048 7.41334C31.31 7.42757 28.6003 8.43551 26.4751 10.2517C25.8457 10.789 25.2229 11.3304 24.5998 11.8721C23.5103 12.8193 22.3834 13.7988 21.225 14.7531C18.4833 17.0207 15.1511 18.1899 11.4838 18.1901Z" fill="#FFFEFE"/>
</svg>
