<svg width="202" height="247" viewBox="0 0 202 247" fill="none" xmlns="http://www.w3.org/2000/svg">
<rect y="0.854492" width="200" height="246.054" transform="rotate(-0.24481 0 0.854492)" fill="#97E264"/>
<path d="M54.145 127.456C54.1563 127.411 55.3865 123.225 59.6598 123.225C62.0892 123.225 64.7505 126.919 65.4914 128.22C65.4914 128.22 65.4943 128.22 65.4943 128.224C65.9637 129.052 70.155 136.175 76.0771 136.175C82.7571 136.175 86.1283 130.471 86.9767 127.456C86.988 127.414 88.1617 123.546 92.0899 123.274C94.4401 123.539 96.9232 126.964 97.6415 128.214C97.6415 128.214 97.6415 128.214 97.6415 128.217C98.0997 129.033 102.299 136.175 108.224 136.175C114.904 136.175 118.276 130.471 119.124 127.456C119.138 127.411 120.366 123.225 124.642 123.225C127.071 123.225 129.738 126.929 130.476 128.227C130.954 129.069 135.142 136.175 141.059 136.175C147.739 136.175 151.11 130.471 151.959 127.456C151.97 127.411 153.2 123.225 157.473 123.225C159.9 123.225 162.555 126.909 163.305 128.214C163.305 128.214 163.305 128.214 163.305 128.217C163.763 129.03 167.957 136.175 173.891 136.175C175.455 136.175 176.719 134.725 176.719 132.937C176.719 131.15 175.455 129.7 173.891 129.7C171.467 129.7 168.814 126.025 168.062 124.717C168.062 124.714 168.062 124.711 168.059 124.708C167.598 123.895 163.404 116.75 157.473 116.75C150.793 116.75 147.422 122.454 146.574 125.469C146.562 125.514 145.332 129.7 141.059 129.7C138.63 129.7 135.968 126.006 135.227 124.705C135.227 124.705 135.224 124.705 135.224 124.701C134.755 123.872 130.564 116.75 124.642 116.75C117.962 116.75 114.59 122.454 113.742 125.469C113.731 125.514 112.501 129.7 108.224 129.7C105.795 129.7 103.128 125.996 102.39 124.698C101.966 123.947 98.555 118.213 93.603 117.009C93.2608 116.844 92.8846 116.75 92.4944 116.75C92.353 116.75 92.237 116.789 92.1012 116.792C91.9994 116.789 91.9118 116.75 91.81 116.75C91.6007 116.75 91.4168 116.837 91.2217 116.886C85.4071 117.569 82.3866 122.658 81.5948 125.469C81.5806 125.514 80.3532 129.7 76.0771 129.7C73.6477 129.7 70.9808 125.996 70.2427 124.698C69.7647 123.856 65.5763 116.75 59.6598 116.75C52.9798 116.75 49.6087 122.454 48.7602 125.469C48.7489 125.514 47.5187 129.7 43.2454 129.7C40.816 129.7 38.1491 125.996 37.411 124.698C36.933 123.856 32.7474 116.75 26.8281 116.75C25.2642 116.75 24 118.2 24 119.987C24 121.775 25.2642 123.225 26.8281 123.225C29.2575 123.225 31.9131 126.913 32.6597 128.217C32.6597 128.217 32.6597 128.217 32.6597 128.22C33.1207 129.033 37.3176 136.175 43.2454 136.175C49.9254 136.175 53.2937 130.471 54.145 127.456Z" fill="black"/>
<path d="M108.844 71.425C110.406 71.425 111.672 69.9755 111.672 68.1875C111.672 66.3994 110.406 64.95 108.844 64.95C107.282 64.95 106.016 66.3994 106.016 68.1875C106.016 69.9755 107.282 71.425 108.844 71.425Z" fill="black"/>
<path d="M131.469 101.372C133.031 101.372 134.297 99.9225 134.297 98.1345C134.297 96.3465 133.031 94.897 131.469 94.897C129.907 94.897 128.641 96.3465 128.641 98.1345C128.641 99.9225 129.907 101.372 131.469 101.372Z" fill="black"/>
<path d="M122.984 85.1845C124.546 85.1845 125.812 83.735 125.812 81.947C125.812 80.159 124.546 78.7095 122.984 78.7095C121.422 78.7095 120.156 80.159 120.156 81.947C120.156 83.735 121.422 85.1845 122.984 85.1845Z" fill="black"/>
<path d="M108.844 101.372C110.406 101.372 111.672 99.9225 111.672 98.1345C111.672 96.3465 110.406 94.897 108.844 94.897C107.282 94.897 106.016 96.3465 106.016 98.1345C106.016 99.9225 107.282 101.372 108.844 101.372Z" fill="black"/>
<path d="M142.781 91.6593C144.343 91.6593 145.609 90.2098 145.609 88.4218C145.609 86.6338 144.343 85.1843 142.781 85.1843C141.219 85.1843 139.953 86.6338 139.953 88.4218C139.953 90.2098 141.219 91.6593 142.781 91.6593Z" fill="black"/>
<path d="M83.3906 101.372C84.9526 101.372 86.2188 99.9225 86.2188 98.1345C86.2188 96.3465 84.9526 94.897 83.3906 94.897C81.8287 94.897 80.5625 96.3465 80.5625 98.1345C80.5625 99.9225 81.8287 101.372 83.3906 101.372Z" fill="black"/>
<path d="M74.9062 78.7094C76.4682 78.7094 77.7344 77.2599 77.7344 75.4719C77.7344 73.6839 76.4682 72.2344 74.9062 72.2344C73.3443 72.2344 72.0781 73.6839 72.0781 75.4719C72.0781 77.2599 73.3443 78.7094 74.9062 78.7094Z" fill="black"/>
<path d="M60.7656 94.8969C62.3276 94.8969 63.5938 93.4474 63.5938 91.6594C63.5938 89.8714 62.3276 88.4219 60.7656 88.4219C59.2037 88.4219 57.9375 89.8714 57.9375 91.6594C57.9375 93.4474 59.2037 94.8969 60.7656 94.8969Z" fill="black"/>
<path d="M94.7031 85.1845C96.2651 85.1845 97.5312 83.735 97.5312 81.947C97.5312 80.159 96.2651 78.7095 94.7031 78.7095C93.1412 78.7095 91.875 80.159 91.875 81.947C91.875 83.735 93.1412 85.1845 94.7031 85.1845Z" fill="black"/>
<path d="M92.4944 116.75H100.359C101.923 116.75 103.188 115.3 103.188 113.513C103.188 111.725 101.923 110.275 100.359 110.275H38.2707C40.3126 82.3257 68.4412 58.475 100.359 58.475C132.278 58.475 160.406 82.3257 162.448 110.275H151.266C149.702 110.275 148.438 111.725 148.438 113.513C148.438 115.3 149.702 116.75 151.266 116.75H157.473H165.406C166.97 116.75 168.234 115.3 168.234 113.513C168.234 80.1695 137.153 52 100.359 52C63.5655 52 32.4844 80.1695 32.4844 113.513C32.4844 115.3 33.7485 116.75 35.3125 116.75H59.6598H91.8071H92.4944Z" fill="black"/>
<path d="M142.781 113.512C142.781 111.725 141.517 110.275 139.953 110.275H111.672C110.108 110.275 108.844 111.725 108.844 113.512C108.844 115.3 110.108 116.75 111.672 116.75H124.642H139.953C141.517 116.75 142.781 115.3 142.781 113.512Z" fill="black"/>
<path d="M158.033 136.175H153.684H141.059H108.224H76.0771H46.2121H43.2426H42.6854C32.3826 136.175 24 144.887 24 155.6C24 162.399 27.3824 168.382 32.4844 171.856V193.887C32.4844 201.336 37.5184 207.4 43.7064 207.4H157.012C163.2 207.4 168.234 201.336 168.234 193.887V171.856C173.336 168.385 176.719 162.402 176.719 155.6C176.719 144.887 168.336 136.175 158.033 136.175ZM146.237 142.65L102.775 186.813C101.301 188.315 98.5918 188.315 97.1155 186.813L75.3899 164.74C74.861 164.202 74.1907 163.924 73.512 163.924C73.1189 163.924 72.7258 164.018 72.3525 164.209C71.34 164.733 70.6839 165.889 70.6839 167.161V180.114C70.6839 182.41 69.2726 184.278 67.5418 184.278C65.811 184.278 64.3998 182.41 64.3998 180.114V155.024C64.3998 154.098 64.0547 153.217 63.4495 152.602L53.6585 142.65H146.237ZM42.6854 142.65H45.1374L58.7435 156.477V168.55H42.6854C35.4992 168.55 29.6562 162.742 29.6562 155.6C29.6562 148.458 35.4992 142.65 42.6854 142.65ZM162.578 175.025V193.887C162.578 197.765 160.081 200.925 157.012 200.925H43.7064C40.6379 200.925 38.1406 197.765 38.1406 193.887V175.025H42.6854H58.7435V180.111C58.7435 185.978 62.6916 190.75 67.5418 190.75C72.392 190.75 76.3401 185.978 76.3401 180.111V174.361L93.3626 191.656C95.1387 193.459 97.4775 194.45 99.9465 194.45C102.415 194.45 104.754 193.456 106.53 191.656L122.9 175.025H158.033H162.578ZM158.033 168.55H129.271L154.758 142.65H158.033C165.22 142.65 171.062 148.458 171.062 155.6C171.062 162.742 165.22 168.55 158.033 168.55Z" fill="black"/>
</svg>
