<svg width="112" height="177" viewBox="0 0 112 177" fill="none" xmlns="http://www.w3.org/2000/svg">
<path d="M105.739 62.969H105.22C103.974 45.0708 89.9175 30.1145 70.8957 24.8889C71.071 24.6819 71.1589 20.7804 71.6182 20.9062C74.8805 19.7189 96.8946 17.3665 98.3508 14.0939C100.624 11.7346 98.3688 6.99411 97.9894 4.38495C97.3056 1.41677 93.9279 -0.510302 90.5046 0.11927L60.6954 5.89288C51.6698 7.13371 52.8137 17.2995 51.788 23.0555C27.5465 24.8384 8.25109 41.8569 6.7813 62.9694C-1.04134 62.8978 0.0298474 69.537 0.071385 74.2453C0.0526132 77.4188 3.26259 79.8514 6.88075 79.6012L13.3111 163.049C13.4149 164.52 14.9334 165.586 16.6129 165.468C16.5953 169.884 15.4551 176.743 22.804 176.916C25.4333 176.563 33.2487 178.301 33.1544 174.325C33.2555 170.355 25.4253 172.083 22.8036 171.733C22.6934 171.734 22.6039 171.656 22.6039 171.561V165.468H89.3967V171.561C89.4486 172.066 42.3354 171.56 42.1409 171.734C38.2724 171.684 38.242 176.967 42.1413 176.917C42.1409 176.917 89.197 176.917 89.197 176.917C96.5998 176.688 95.3813 169.928 95.3877 165.468C97.0671 165.583 98.5857 164.522 98.6895 163.049L102.26 116.712C102.37 115.284 101.121 114.049 99.4707 113.954C97.822 113.862 96.3926 114.939 96.2827 116.367L92.8986 160.285C91.835 160.285 20.172 160.285 19.1028 160.285L12.8853 79.6012H99.1157L97.0899 105.894C96.9801 107.322 98.229 108.557 99.8793 108.652C101.529 108.751 102.957 107.666 103.067 106.238L105.12 79.6005C108.738 79.85 111.948 77.4188 111.93 74.2446C111.945 69.802 113.068 63.2012 105.739 62.969ZM99.2171 62.969H66.0054L70.2195 30.157C86.2422 34.9873 98.0089 47.7418 99.2171 62.969ZM52.6903 62.969L57.1687 28.0951C59.6242 28.1518 62.0286 28.3878 64.3671 28.7852L59.9769 62.969H52.6903ZM61.9072 10.9688C62.3306 11.1589 91.9377 4.62924 92.1142 5.40083C92.115 5.40152 93.4126 11.0148 93.4126 11.0148C93.4554 11.1924 93.2864 11.3372 93.0875 11.3483L70.2838 15.8537C66.0542 16.5258 65.1451 20.4726 65.0309 23.6176C62.6848 23.2403 60.2809 23.0085 57.8321 22.9307L59.0184 13.6948C59.1933 12.3327 60.3544 11.2373 61.9072 10.9688ZM51.1122 28.3211L46.6625 62.969H12.7847C14.2169 44.9132 30.496 30.3335 51.1122 28.3211ZM105.939 74.245C105.942 74.594 6.12389 74.5701 6.06318 74.246C6.06278 74.245 6.06278 68.3252 6.06278 68.3252C6.05958 67.9762 105.878 68.0001 105.939 68.3242C105.939 68.3249 105.939 74.245 105.939 74.245Z" fill="#97E264"/>
<path d="M78.8466 111.356C78.3082 85.3807 33.6893 85.3848 33.1553 111.357C33.6937 137.331 78.3122 137.327 78.8466 111.356ZM39.1459 111.356C39.5433 92.1923 72.4614 92.1954 72.8552 111.357C72.4582 130.519 39.5401 130.516 39.1459 111.356Z" fill="#97E264"/>
<path d="M65.6134 111.356C65.3869 100.427 46.6135 100.429 46.3887 111.356C46.6151 122.285 65.3885 122.283 65.6134 111.356ZM52.3797 111.356C52.3146 107.292 59.6879 107.292 59.6224 111.356C59.6871 115.419 52.3138 115.419 52.3797 111.356Z" fill="#97E264"/>
<path d="M32.8421 137.386C25.5331 137.625 26.4749 144.07 26.5388 148.565C26.8148 154.888 34.2636 154.073 39.4594 154.018C46.7684 153.779 45.8266 147.335 45.7627 142.84C45.4863 136.517 38.0379 137.331 32.8421 137.386ZM39.7717 142.84C39.4582 150.636 41.8426 148.561 32.8421 148.835C32.1615 149.105 32.6844 142.972 32.529 142.841C32.5294 142.691 32.6696 142.57 32.8421 142.57C33.0211 142.708 40.0589 142.249 39.7717 142.84Z" fill="#97E264"/>
</svg>
