<svg width="53" height="65" viewBox="0 0 53 65" fill="none" xmlns="http://www.w3.org/2000/svg">
<path d="M4.34046 19.3511V56.856C4.34046 59.0728 5.15652 61.1546 6.58209 62.6483C8.00108 64.1461 9.97586 64.9964 12.0426 65H40.9574C43.0247 64.9964 44.9995 64.1461 46.4179 62.6483C47.8435 61.1546 48.6595 59.0728 48.6595 56.856V19.3511C51.4934 18.6019 53.3296 15.8749 52.9506 12.9785C52.5709 10.0827 50.0941 7.91646 47.1617 7.91587H39.3373V6.01306C39.3462 4.41292 38.711 2.87641 37.5738 1.74602C36.4366 0.616233 34.8916 -0.0128818 33.2852 0.00020001H19.7148C18.1084 -0.0128818 16.5634 0.616233 15.4262 1.74602C14.289 2.87641 13.6538 4.41292 13.6628 6.01306V7.91587H5.83826C2.90594 7.91646 0.429113 10.0827 0.0494395 12.9785C-0.329637 15.8749 1.50664 18.6019 4.34046 19.3511V19.3511ZM40.9574 61.9555H12.0426C9.42963 61.9555 7.39695 59.7197 7.39695 56.856V19.4849H45.6031V56.856C45.6031 59.7197 43.5704 61.9555 40.9574 61.9555ZM16.7192 6.01306C16.7091 5.22043 17.0219 4.45752 17.5866 3.89798C18.1508 3.33843 18.9185 3.03101 19.7148 3.04469H33.2852C34.0815 3.03101 34.8492 3.33843 35.4134 3.89798C35.9781 4.45693 36.2909 5.22043 36.2808 6.01306V7.91587H16.7192V6.01306ZM5.83826 10.9604H47.1617C48.681 10.9604 49.9126 12.1871 49.9126 13.7004C49.9126 15.2137 48.681 16.4404 47.1617 16.4404H5.83826C4.31897 16.4404 3.08742 15.2137 3.08742 13.7004C3.08742 12.1871 4.31897 10.9604 5.83826 10.9604V10.9604Z" fill="#97E264"/>
</svg>
