<svg width="115" height="179" viewBox="0 0 115 179" fill="none" xmlns="http://www.w3.org/2000/svg">
<path d="M103.405 59.2831H98.2071L98.0377 53.9173C98.0377 53.8697 98.0332 53.8228 98.0278 53.7741C97.6619 50.2304 95.779 46.9349 92.7514 44.5392C89.7238 42.1436 85.7719 40.8221 81.677 40.8361H64.3382V33.3389C64.346 31.2365 65.0866 29.1854 66.4623 27.4559C67.8381 25.7263 69.7845 24.3994 72.0453 23.6499L108.911 11.5462C109.215 11.4465 109.493 11.2957 109.73 11.1025C109.967 10.9093 110.157 10.6774 110.291 10.4202C110.425 10.163 110.499 9.88545 110.509 9.60339C110.519 9.32133 110.465 9.04029 110.35 8.77634L107.135 1.3888C106.903 0.855842 106.437 0.424738 105.84 0.190302C105.242 -0.0441332 104.562 -0.0627021 103.948 0.13868L67.0818 12.2424C62.1605 13.8757 57.9234 16.7653 54.9281 20.5308C51.9328 24.2964 50.3196 28.7616 50.3007 33.3389V40.8375H32.6529C28.558 40.8235 24.6061 42.145 21.5785 44.5407C18.5509 46.9363 16.668 50.2318 16.302 53.7755C16.2967 53.8228 16.2934 53.8697 16.2921 53.9188L16.1227 59.2845H11.6131C8.63528 59.2834 5.77085 60.2766 3.61214 62.0588C1.45344 63.841 0.165578 66.2759 0.0148853 68.8599C-0.135807 71.4439 0.862194 73.9794 2.80251 75.9421C4.74282 77.9048 7.47703 79.1445 10.4397 79.4049L20.3435 175.735C20.4285 176.628 20.8983 177.461 21.6591 178.066C22.4199 178.671 23.4156 179.005 24.4471 179H89.8827C90.9135 179.005 91.9087 178.672 92.6694 178.068C93.4301 177.463 93.9003 176.632 93.986 175.739L103.891 79.4468C106.923 79.3336 109.783 78.1935 111.858 76.2707C113.934 74.348 115.061 71.7954 114.997 69.1597C114.934 66.524 113.685 64.0147 111.518 62.1692C109.352 60.3237 106.439 59.2887 103.405 59.2859V59.2831ZM55.2464 33.3389C55.2619 29.6337 56.568 26.0194 58.9927 22.9713C61.4174 19.9233 64.8472 17.5844 68.831 16.2624L103.384 4.91677L104.85 8.28503L70.2982 19.6299C67.0994 20.6905 64.3454 22.5679 62.3987 25.015C60.452 27.4622 59.4039 30.3642 59.3925 33.3389V45.2421C59.3925 45.7198 59.1741 46.178 58.7854 46.5157C58.3966 46.8535 57.8693 47.0433 57.3195 47.0433C56.7697 47.0433 56.2424 46.8535 55.8536 46.5157C55.4648 46.178 55.2464 45.7198 55.2464 45.2421V33.3389ZM91.1397 155.149H49.2044V117.95H94.9644L91.1397 155.149ZM97.2497 95.7481H89.2439C88.5881 95.7481 87.9591 95.9745 87.4953 96.3774C87.0316 96.7803 86.771 97.3268 86.771 97.8967C86.771 98.4665 87.0316 99.013 87.4953 99.416C87.9591 99.8189 88.5881 100.045 89.2439 100.045H96.8058L95.4046 113.653H49.2044V100.045H78.7693C79.4252 100.045 80.0541 99.8189 80.5179 99.416C80.9816 99.013 81.2422 98.4665 81.2422 97.8967C81.2422 97.3268 80.9816 96.7803 80.5179 96.3774C80.0541 95.9745 79.4252 95.7481 78.7693 95.7481H46.7316C46.0758 95.7481 45.4468 95.9745 44.983 96.3774C44.5193 96.7803 44.2587 97.3268 44.2587 97.8967V157.298C44.2587 157.868 44.5193 158.414 44.983 158.817C45.4468 159.22 46.0758 159.446 46.7316 159.446H90.6963L89.1273 174.701H25.2043L15.4089 79.4547H98.9238L97.2497 95.7481ZM108.12 73.4626C107.502 74.002 106.768 74.4295 105.959 74.7205C105.149 75.0114 104.282 75.1599 103.406 75.1575H11.6131C9.84615 75.1575 8.15158 74.5476 6.90217 73.4621C5.65275 72.3765 4.95084 70.9041 4.95084 69.3689C4.95084 67.8336 5.65275 66.3613 6.90217 65.2757C8.15158 64.1901 9.84615 63.5802 11.6131 63.5802H32.3685C33.0243 63.5802 33.6533 63.3539 34.1171 62.9509C34.5808 62.548 34.8413 62.0015 34.8413 61.4317C34.8413 60.8618 34.5808 60.3153 34.1171 59.9124C33.6533 59.5094 33.0243 59.2831 32.3685 59.2831H21.0701L21.2349 54.1093C21.5086 51.6461 22.831 49.3605 24.9431 47.7003C27.0552 46.0402 29.8048 45.1252 32.6529 45.1347H50.3007V45.2421C50.3007 46.8595 51.0402 48.4106 52.3565 49.5543C53.6727 50.698 55.458 51.3405 57.3195 51.3405C59.181 51.3405 60.9662 50.698 62.2825 49.5543C63.5988 48.4106 64.3382 46.8595 64.3382 45.2421V45.1347H81.677C84.5254 45.1247 87.2754 46.0395 89.3879 47.6997C91.5004 49.3599 92.823 51.6458 93.0966 54.1093L93.2614 59.2831H45.0076C44.3518 59.2831 43.7228 59.5094 43.259 59.9124C42.7953 60.3153 42.5348 60.8618 42.5348 61.4317C42.5348 62.0015 42.7953 62.548 43.259 62.9509C43.7228 63.3539 44.3518 63.5802 45.0076 63.5802H103.405C104.723 63.5798 106.012 63.919 107.108 64.555C108.204 65.1911 109.059 66.0953 109.563 67.1533C110.068 68.2113 110.2 69.3757 109.943 70.4989C109.686 71.6222 109.051 72.654 108.119 73.4637L108.12 73.4626Z" fill="#97E264"/>
</svg>
