<svg width="66" height="69" viewBox="0 0 66 69" fill="none" xmlns="http://www.w3.org/2000/svg">
<path d="M46.1178 32H20.5562C19.1452 32 18 33.1973 18 34.6724C18 36.1475 19.1452 37.3448 20.5562 37.3448H46.1178C47.5288 37.3448 48.674 36.1475 48.674 34.6724C48.674 33.1973 47.5288 32 46.1178 32Z" fill="#97E264"/>
<path d="M33 0C14.8053 0 0 15.4755 0 34.5C0 53.5245 14.8053 69 33 69C51.1973 69 66 53.5245 66 34.5C66 15.4755 51.1947 0 33 0ZM33 63.6553C17.6221 63.6553 5.11229 50.5769 5.11229 34.5C5.11229 18.4231 17.6221 5.34467 33 5.34467C48.3779 5.34467 60.8877 18.4231 60.8877 34.5C60.8877 50.5769 48.3779 63.6553 33 63.6553Z" fill="#97E264"/>
</svg>
